# File created by Blade
# Date/Time:  Fri Jan 16 15:45:56 2015
#---------------------------------------------------------
:version 1.10
:name HOM
:units
  mass 1.0
  length 1.000000
  angle deg
:documentation
     Acclaim Skeleton File
:root
   axis xyz
   order TX TY TZ RX RY RZ
   position 0.000000 0.000000 0.000000
   orientation 0 0 0
:bonedata
   begin
      id 1
      name Spine_dum
      direction 0.000000 1.000000 0.000000
      length 7.170412
      axis 0.0 0.0 0.0 xyz
   end
   begin
      id 2
      name LeftUpLeg_dum
      direction 1.000000 0.000000 0.000000
      length 4.318350
      axis 0.0 0.0 0.0 xyz
   end
   begin
      id 3
      name RightUpLeg_dum
      direction -1.000000 0.000000 0.000000
      length 4.318350
      axis 0.0 0.0 0.0 xyz
   end
   begin
      id 4
      name Spine
      direction 0.000000 1.000000 0.000000
      length 0.000000
      axis 0.0 0.0 0.0 xyz
      dof rx ry rz
   end
   begin
      id 5
      name Spine_dum1
      direction 0.000000 1.000000 0.000000
      length 14.276153
      axis 0.0 0.0 0.0 xyz
   end
   begin
      id 6
      name Spine_dum2
      direction 0.000000 1.000000 0.000000
      length 10.718243
      axis 0.0 0.0 0.0 xyz
   end
   begin
      id 7
      name Spine_dum3
      direction 0.000000 1.000000 0.000000
      length 10.718243
      axis 0.0 0.0 0.0 xyz
   end
   begin
      id 8
      name Head
      direction 0.000000 1.000000 0.000000
      length 4.527550
      axis 0.0 0.0 0.0 xyz
      dof rx ry rz
   end
   begin
      id 9
      name LeftShoulder
      direction 1.000000 0.000000 0.000000
      length 7.058872
      axis 0.0 0.0 -90.0 xyz
      dof rx ry rz
   end
   begin
      id 10
      name LeftArm
      direction 1.000000 0.000000 0.000000
      length 10.955525
      axis 0.0 0.0 -90.0 xyz
      dof rx ry rz
   end
   begin
      id 11
      name LeftForeArm
      direction 1.000000 0.000000 0.000000
      length 8.193716
      axis 0.0 0.0 -90.0 xyz
      dof ry rz rx
   end
   begin
      id 12
      name LeftHand
      direction 0.000000 0.000000 0.000000
      length 0.000000
      axis 0.0 0.0 -90.0 xyz
      dof rx ry rz
   end
   begin
      id 13
      name LeftHand_dum1
      direction 0.000000 0.000000 0.000000
      length 0.000000
      axis 0.0 0.0 -90.0 xyz
   end
   begin
      id 14
      name LeftHand_dum2
      direction 1.000000 0.000000 0.000000
      length 3.937000
      axis 0.0 0.0 -90.0 xyz
   end
   begin
      id 15
      name LeftHandThumb1
      direction 0.000000 0.000000 1.000000
      length 3.937000
      axis 0.0 0.0 -90.0 xyz
      dof rx rz ry
   end
   begin
      id 16
      name RightShoulder
      direction -1.000000 0.000000 0.000000
      length 7.058872
      axis 0.0 0.0 90.0 xyz
      dof rx ry rz
   end
   begin
      id 17
      name RightArm
      direction -1.000000 0.000000 0.000000
      length 10.955525
      axis 0.0 0.0 90.0 xyz
      dof rx ry rz
   end
   begin
      id 18
      name RightForeArm
      direction -1.000000 0.000000 0.000000
      length 8.193716
      axis 0.0 0.0 90.0 xyz
      dof ry rz rx
   end
   begin
      id 19
      name RightHand
      direction 0.000000 0.000000 0.000000
      length 0.000000
      axis 0.0 0.0 90.0 xyz
      dof rx ry rz
   end
   begin
      id 20
      name RightHand_dum1
      direction 0.000000 0.000000 0.000000
      length 0.000000
      axis 0.0 0.0 90.0 xyz
   end
   begin
      id 21
      name RightHand_dum2
      direction -1.000000 0.000000 0.000000
      length 3.937000
      axis 0.0 0.0 90.0 xyz
   end
   begin
      id 22
      name RightHandThumb1
      direction 0.000000 0.000000 1.000000
      length 3.937000
      axis 0.0 0.0 90.0 xyz
      dof rx rz ry
   end
   begin
      id 23
      name LeftUpLeg
      direction 0.000000 -1.000000 0.000000
      length 17.323638
      axis 0.0 0.0 0.0 xyz
      dof rx ry rz
   end
   begin
      id 24
      name LeftLeg
      direction 0.000000 -1.000000 0.000000
      length 16.270368
      axis 0.0 0.0 0.0 xyz
      dof rx ry rz
   end
   begin
      id 25
      name LeftFoot
      direction 0.000000 -0.258819 0.965926
      length 4.922846
      axis 15.0 0.0 0.0 xyz
      dof rx ry rz
   end
   begin
      id 26
      name LeftToeBase
      direction 0.000000 0.000000 1.000000
      length 2.952750
      axis 0.0 0.0 0.0 xyz
      dof rx ry rz
   end
   begin
      id 27
      name RightUpLeg
      direction 0.000000 -1.000000 0.000000
      length 17.323638
      axis 0.0 0.0 0.0 xyz
      dof rx ry rz
   end
   begin
      id 28
      name RightLeg
      direction 0.000000 -1.000000 0.000000
      length 16.270368
      axis 0.0 0.0 0.0 xyz
      dof rx ry rz
   end
   begin
      id 29
      name RightFoot
      direction 0.000000 -0.258819 0.965926
      length 4.922846
      axis 15.0 0.0 0.0 xyz
      dof rx ry rz
   end
   begin
      id 30
      name RightToeBase
      direction 0.000000 0.000000 1.000000
      length 2.952750
      axis 0.0 0.0 0.0 xyz
      dof rx ry rz
   end
:hierarchy
   begin
      root Spine_dum LeftUpLeg_dum RightUpLeg_dum
      Spine_dum Spine
      LeftUpLeg_dum LeftUpLeg
      RightUpLeg_dum RightUpLeg
      Spine Spine_dum1 Spine_dum2 Spine_dum3
      Spine_dum1 Head
      Spine_dum2 LeftShoulder
      Spine_dum3 RightShoulder
      LeftShoulder LeftArm
      LeftArm LeftForeArm
      LeftForeArm LeftHand
      LeftHand LeftHand_dum1 LeftHand_dum2
      LeftHand_dum1 LeftHandThumb1
      RightShoulder RightArm
      RightArm RightForeArm
      RightForeArm RightHand
      RightHand RightHand_dum1 RightHand_dum2
      RightHand_dum1 RightHandThumb1
      LeftUpLeg LeftLeg
      LeftLeg LeftFoot
      LeftFoot LeftToeBase
      RightUpLeg RightLeg
      RightLeg RightFoot
      RightFoot RightToeBase
   end

# File created by Blade
# Date/Time:  Fri Jan 16 15:45:48 2015
# Frame Rate: 120.000 fps
#------------------------------------------------------
:FULLY-SPECIFIED
:DEGREES
1791
root -5.304041 35.302700 -9.843332 1.246847 2.911545 -3.225463
Spine -3.366594 -2.928236 3.377765
Head -6.222533 -12.674405 -5.052274
LeftShoulder -17.654827 10.216307 -17.348915
LeftArm 20.079083 17.546222 -65.461070
LeftForeArm 14.784778 -0.000000 13.108031
LeftHand 2.953536 -0.000000 -9.992704
LeftHandThumb1 -26.253704 0.000000 33.147579
RightShoulder -11.404834 32.495400 -51.591123
RightArm 71.974537 71.498865 70.513066
RightForeArm -16.622253 -0.000000 106.895358
RightHand 5.361064 0.000000 -50.749966
RightHandThumb1 -24.326973 -0.000000 -32.862282
LeftUpLeg 6.953112 10.568490 4.022037
LeftLeg -8.925048 -0.000000 0.000000
LeftFoot -13.047793 22.302175 -10.964379
LeftToeBase 21.181187 -0.000000 -0.000000
RightUpLeg 6.880981 -10.751858 -0.214866
RightLeg -4.734422 -0.000000 0.000000
RightFoot -6.246691 -27.384506 7.276540
RightToeBase 12.358783 -0.000000 -0.000000
1792
root -5.306931 35.302285 -9.838782 1.247706 2.941501 -3.222079
Spine -3.377408 -2.769959 3.391390
Head -6.198854 -12.817063 -5.154327
LeftShoulder -17.529964 10.213335 -17.304845
LeftArm 20.037194 17.544329 -65.506023
LeftForeArm 14.747634 0.000000 13.080900
LeftHand 3.022968 -0.000000 -9.877801
LeftHandThumb1 -26.253704 0.000000 33.147579
RightShoulder -11.571067 32.694227 -51.668590
RightArm 78.965640 71.549810 77.942082
RightForeArm -15.065344 -0.000000 107.481743
RightHand 5.099075 -0.000000 -52.027999
RightHandThumb1 -24.326973 -0.000000 -32.862282
LeftUpLeg 6.954588 10.516845 4.024920
LeftLeg -8.923834 -0.000000 0.000000
LeftFoot -13.054931 22.307901 -10.982393
LeftToeBase 21.185789 -0.000000 -0.000000
RightUpLeg 6.897894 -10.771851 -0.214156
RightLeg -4.744705 -0.000000 0.000000
RightFoot -6.259602 -27.393820 7.272049
RightToeBase 12.386879 -0.000000 -0.000000
1793
root -5.310000 35.302200 -9.834126 1.247606 2.971904 -3.221447
Spine -3.382218 -2.601732 3.406854
Head -6.190111 -12.959768 -5.254505
LeftShoulder -17.423553 10.177908 -17.264238
LeftArm 19.996521 17.614488 -65.521271
LeftForeArm 14.701890 -0.000000 13.051289
LeftHand 3.044281 -0.000000 -9.841310
LeftHandThumb1 -26.253704 0.000000 33.147579
RightShoulder -11.764220 32.892125 -51.759480
RightArm 85.823836 71.310954 85.219073
RightForeArm -13.469069 -0.000000 108.077620
RightHand 5.116546 -0.000000 -52.837063
RightHandThumb1 -24.326973 -0.000000 -32.862282
LeftUpLeg 6.954605 10.501871 4.031514
LeftLeg -8.920703 -0.000000 0.000000
LeftFoot -13.065264 22.304232 -10.980737
LeftToeBase 21.203095 -0.000000 -0.000000
RightUpLeg 6.916723 -10.813970 -0.212459
RightLeg -4.756233 -0.000000 0.000000
RightFoot -6.263281 -27.371810 7.292669
RightToeBase 12.356534 -0.000000 -0.000000
1794
root -5.313082 35.301863 -9.830655 1.251022 3.008184 -3.215048
Spine -3.381530 -2.439000 3.409402
Head -6.203008 -13.114987 -5.329835
LeftShoulder -17.328950 10.142381 -17.219495
LeftArm 19.971759 17.671132 -65.541453
LeftForeArm 14.675685 -0.000000 13.032059
LeftHand 3.138352 0.000000 -9.759315
LeftHandThumb1 -26.253704 0.000000 33.147579
RightShoulder -11.982445 33.060393 -51.867545
RightArm 92.305291 70.770478 92.109325
RightForeArm -11.984707 -0.000000 108.696236
RightHand 4.491471 -0.000000 -54.232844
RightHandThumb1 -24.326973 -0.000000 -32.862282
LeftUpLeg 6.944213 10.492730 4.030656
LeftLeg -8.910615 -0.000000 0.000000
LeftFoot -13.067028 22.279148 -10.992555
LeftToeBase 21.196186 -0.000000 -0.000000
RightUpLeg 6.929502 -10.849196 -0.211571
RightLeg -4.770279 -0.000000 0.000000
RightFoot -6.268889 -27.390894 7.272234
RightToeBase 12.385897 -0.000000 -0.000000
1795
root -5.316234 35.303872 -9.827811 1.262737 3.043027 -3.210453
Spine -3.399360 -2.281246 3.445643
Head -6.210367 -13.275437 -5.501094
LeftShoulder -17.235620 10.098017 -17.229842
LeftArm 19.941786 17.750402 -65.499418
LeftForeArm 14.519454 -0.000000 13.040890
LeftHand 3.379512 -0.000000 -9.243508
LeftHandThumb1 -26.253704 0.000000 33.147579
RightShoulder -12.474062 33.764529 -52.288183
RightArm 96.401743 69.913992 96.912817
RightForeArm -10.525801 0.000000 109.365265
RightHand 4.507197 -0.000000 -55.186942
RightHandThumb1 -24.326973 -0.000000 -32.862282
LeftUpLeg 6.925348 10.478012 4.030338
LeftLeg -8.902279 -0.000000 0.000000
LeftFoot -13.055008 22.261824 -11.024559
LeftToeBase 21.167598 -0.000000 -0.000000
RightUpLeg 6.931210 -10.861795 -0.209660
RightLeg -4.777732 -0.000000 0.000000
RightFoot -6.269992 -27.389055 7.330254
RightToeBase 12.339451 -0.000000 -0.000000
1796
root -5.320339 35.305251 -9.822438 1.237738 3.064526 -3.217753
Spine -3.366173 -2.110651 3.465100
Head -6.241937 -13.421576 -5.590850
LeftShoulder -17.146526 10.068414 -17.223331
LeftArm 19.944516 17.821424 -65.477264
LeftForeArm 14.503251 -0.000000 13.024182
LeftHand 3.424993 0.000000 -9.200019
LeftHandThumb1 -26.253704 0.000000 33.147579
RightShoulder -12.800984 34.123344 -52.527047
RightArm 101.150598 69.079953 102.217156
RightForeArm -9.114222 0.000000 110.016942
RightHand 3.977946 -0.000000 -55.781785
RightHandThumb1 -24.326973 -0.000000 -32.862282
LeftUpLeg 6.954758 10.474906 4.050752
LeftLeg -8.904892 -0.000000 0.000000
LeftFoot -13.042639 22.252203 -11.032270
LeftToeBase 21.175314 -0.000000 -0.000000
RightUpLeg 6.973257 -10.897741 -0.202512
RightLeg -4.789038 -0.000000 0.000000
RightFoot -6.265637 -27.361249 7.363378
RightToeBase 12.333317 -0.000000 -0.000000
1797
root -5.325118 35.305269 -9.819109 1.244018 3.107593 -3.208510
Spine -3.376709 -1.946982 3.442673
Head -6.246346 -13.599309 -5.612805
LeftShoulder -17.045158 10.040774 -17.178922
LeftArm 19.920171 17.875790 -65.491041
LeftForeArm 14.684871 -0.000000 13.005469
LeftHand 3.106086 -0.000000 -9.920848
LeftHandThumb1 -26.253704 0.000000 33.147579
RightShoulder -13.003342 34.378406 -52.649619
RightArm 105.639308 68.245339 107.113261
RightForeArm -7.403151 -0.000000 110.675155
RightHand 3.880501 -0.000000 -56.751267
RightHandThumb1 -24.326973 -0.000000 -32.862282
LeftUpLeg 6.942641 10.461961 4.051272
LeftLeg -8.902691 -0.000000 0.000000
LeftFoot -13.035725 22.220826 -11.052084
LeftToeBase 21.204541 -0.000000 -0.000000
RightUpLeg 6.989379 -10.926923 -0.203359
RightLeg -4.809677 -0.000000 0.000000
RightFoot -6.268222 -27.379020 7.365224
RightToeBase 12.281924 -0.000000 -0.000000
1798
root -5.329100 35.305725 -9.815789 1.256773 3.137711 -3.204585
Spine -3.402191 -1.783402 3.425786
Head -6.249361 -13.762365 -5.651368
LeftShoulder -16.954205 10.036816 -17.144799
LeftArm 19.908132 17.902139 -65.508641
LeftForeArm 14.728623 -0.000000 13.002847
LeftHand 3.055668 0.000000 -10.066850
LeftHandThumb1 -26.253704 0.000000 33.147579
RightShoulder -13.175181 34.617128 -52.723218
RightArm 109.669145 67.297862 111.497776
RightForeArm -6.032303 -0.000000 111.233192
RightHand 4.054521 -0.000000 -56.737394
RightHandThumb1 -24.326973 -0.000000 -32.862282
LeftUpLeg 6.925961 10.449592 4.051912
LeftLeg -8.894932 -0.000000 0.000000
LeftFoot -13.037625 22.206553 -11.070572
LeftToeBase 21.171971 -0.000000 -0.000000
RightUpLeg 6.992475 -10.935670 -0.197035
RightLeg -4.824050 -0.000000 0.000000
RightFoot -6.287746 -27.396337 7.392882
RightToeBase 12.346829 -0.000000 -0.000000
1799
root -5.333128 35.305947 -9.814098 1.278624 3.173466 -3.200240
Spine -3.445754 -1.620287 3.405641
Head -6.222050 -13.911294 -5.639775
LeftShoulder -16.857823 10.038420 -17.100646
LeftArm 19.898088 17.938989 -65.530321
LeftForeArm 14.734457 -0.000000 13.010221
LeftHand 3.180885 0.000000 -9.876048
LeftHandThumb1 -26.253704 0.000000 33.147579
RightShoulder -13.361936 34.772360 -52.785908
RightArm 113.156185 66.309689 115.245465
RightForeArm -4.864219 0.000000 111.767657
RightHand 3.913800 0.000000 -57.497379
RightHandThumb1 -24.326973 -0.000000 -32.862282
LeftUpLeg 6.893634 10.425230 4.051057
LeftLeg -8.883400 -0.000000 0.000000
LeftFoot -13.038647 22.189453 -11.074921
LeftToeBase 21.201286 -0.000000 -0.000000
RightUpLeg 6.980854 -10.964366 -0.192048
RightLeg -4.828380 -0.000000 0.000000
RightFoot -6.288138 -27.395732 7.381551
RightToeBase 12.318048 -0.000000 -0.000000
1800
root -5.336116 35.306984 -9.811753 1.289885 3.203149 -3.196413
Spine -3.478375 -1.467570 3.405080
Head -6.196542 -14.055405 -5.702404
LeftShoulder -16.751596 10.038624 -17.090043
LeftArm 19.861816 17.958629 -65.537202
LeftForeArm 14.761928 -0.000000 13.043162
LeftHand 3.178626 0.000000 -9.860522
LeftHandThumb1 -26.253704 0.000000 33.147579
RightShoulder -13.534071 35.140835 -52.948328
RightArm 115.938446 65.440741 118.433531
RightForeArm -3.217785 0.000000 112.358269
RightHand 4.218377 -0.000000 -57.854533
RightHandThumb1 -24.326973 -0.000000 -32.862282
LeftUpLeg 6.872816 10.407962 4.052142
LeftLeg -8.868165 -0.000000 0.000000
LeftFoot -13.039407 22.199833 -11.061882
LeftToeBase 21.226733 -0.000000 -0.000000
RightUpLeg 6.980942 -10.957910 -0.188475
RightLeg -4.832526 -0.000000 0.000000
RightFoot -6.297342 -27.408289 7.423824
RightToeBase 12.270527 -0.000000 -0.000000
1801
root -5.340375 35.308015 -9.808593 1.298657 3.232373 -3.198090
Spine -3.515008 -1.286647 3.398447
Head -6.159085 -14.201847 -5.740586
LeftShoulder -16.629869 10.047684 -17.068697
LeftArm 19.842717 17.997128 -65.538524
LeftForeArm 14.869646 -0.000000 13.055232
LeftHand 3.064282 -0.000000 -10.104429
LeftHandThumb1 -26.253704 0.000000 33.147579
RightShoulder -13.708944 35.384221 -53.047272
RightArm 118.319963 64.535185 121.086888
RightForeArm -2.003631 -0.000000 112.868692
RightHand 4.407080 -0.000000 -58.102955
RightHandThumb1 -24.326973 -0.000000 -32.862282
LeftUpLeg 6.861562 10.404589 4.059460
LeftLeg -8.865425 -0.000000 0.000000
LeftFoot -13.042168 22.179844 -11.083183
LeftToeBase 21.268940 -0.000000 -0.000000
RightUpLeg 6.981618 -10.977265 -0.177035
RightLeg -4.838748 -0.000000 0.000000
RightFoot -6.303229 -27.425510 7.445780
RightToeBase 12.313739 -0.000000 -0.000000
1802
root -5.343991 35.308449 -9.806174 1.314913 3.262614 -3.200676
Spine -3.559592 -1.106211 3.396678
Head -6.124045 -14.373795 -5.784351
LeftShoulder -16.519134 10.057048 -17.044316
LeftArm 19.831680 18.049367 -65.541934
LeftForeArm 14.825112 -0.000000 13.069777
LeftHand 3.236492 -0.000000 -9.799485
LeftHandThumb1 -26.253704 0.000000 33.147579
RightShoulder -13.926747 35.481703 -53.140557
RightArm 120.473032 63.576271 123.481421
RightForeArm -0.902924 -0.000000 113.403775
RightHand 4.337695 0.000000 -58.501359
RightHandThumb1 -24.326973 -0.000000 -32.862282
LeftUpLeg 6.839117 10.411574 4.065603
LeftLeg -8.861275 -0.000000 0.000000
LeftFoot -13.028102 22.161410 -11.081515
LeftToeBase 21.221563 -0.000000 -0.000000
RightUpLeg 6.975356 -10.956097 -0.163786
RightLeg -4.840968 -0.000000 0.000000
RightFoot -6.310339 -27.457460 7.475611
RightToeBase 12.277617 -0.000000 -0.000000
1803
root -5.347296 35.308850 -9.803902 1.332071 3.308387 -3.194260
Spine -3.614843 -0.965761 3.378696
Head -6.064777 -14.505765 -5.810985
LeftShoulder -16.418976 10.088504 -17.022795
LeftArm 19.831664 18.094046 -65.537556
LeftForeArm 14.878961 -0.000000 13.085422
LeftHand 3.244458 -0.000000 -9.783432
LeftHandThumb1 -26.253704 0.000000 33.147579
RightShoulder -14.118311 35.698226 -53.241372
RightArm 122.036663 62.784860 125.280377
RightForeArm 0.113884 -0.000000 113.886076
RightHand 4.429702 -0.000000 -59.049752
RightHandThumb1 -24.326973 -0.000000 -32.862282
LeftUpLeg 6.815280 10.371908 4.061239
LeftLeg -8.860234 -0.000000 0.000000
LeftFoot -13.028046 22.156507 -11.094484
LeftToeBase 21.243666 -0.000000 -0.000000
RightUpLeg 6.969902 -10.964910 -0.159986
RightLeg -4.842059 -0.000000 0.000000
RightFoot -6.328438 -27.476309 7.491295
RightToeBase 12.280909 -0.000000 -0.000000
